<svg xmlns="http://www.w3.org/2000/svg" viewBox="0 0 361.06 84.59"><defs><style>.cls-1{fill:#0a4f2b;}.cls-2{fill:#003d21;}.cls-3{fill:#387d39;}.cls-4{fill:#85b52b;}.cls-5{fill:#68a230;}.cls-6{fill:#c3d576;}.cls-7{fill:none;}.cls-8{fill:#317337;}.cls-9{fill:#fff;}.cls-10{fill:#d7d7d7;}.cls-11{fill:#85b67b;}.cls-12{fill:#69b72d;}</style></defs><title>logo-z01</title><g id="zoomlaCMS" data-name="zoomlaCMS"><g id="logo"><g id="ico"><circle id="_路径_" data-name="&lt;路径&gt;" class="cls-1" cx="42.29" cy="42.29" r="42.28"/><path id="_路径_2" data-name="&lt;路径&gt;" class="cls-2" d="M41.75,1s3,20.7-12.22,33.67a38.51,38.51,0,0,1-9.82,5.91,13.72,13.72,0,0,0-8.17,8.19C9.6,53.26,12.67,61.4,16.23,66.09,20.1,71.18,24.3,78.5,39.32,81.87c0,0-15.12-4.12-23.53-18.45-2.06-3.52-3.14-6.23-3.41-8.62a10.27,10.27,0,0,1,2.74-8.56A11.74,11.74,0,0,1,18.18,44c1.31-.78,11.23-4,16.74-11.85C41.4,23,45,13.05,41.75,1Z"/><path id="_路径_3" data-name="&lt;路径&gt;" class="cls-3" d="M39.34,81.9a50,50,0,0,1-9.53-4,41.28,41.28,0,0,1-10.67-7.88c-6.78-7.59-12.45-18.9-2.69-26.23,2.43-1.82,8.45-3.06,14.38-8.69A38.45,38.45,0,0,0,41.62.28a26.25,26.25,0,0,0-3.28.2C33.27,1,20.84,3.62,12.13,13.07a41.71,41.71,0,0,0-7,46.76s7.79,10.07,9.4,11.63C17.82,74.71,31.08,81.1,39.34,81.9Z"/><path id="_路径_4" data-name="&lt;路径&gt;" class="cls-4" d="M32.88,13.26s-3.07,3.15-2.15,9.94c.85,6.22-5.51,15.09-13.27,17.52-7,2.18-8.19,7.39-8.44,8.73,0,0-1.19-9.82,5.57-21.1,0,0-7,6.77-6.49,19.93.94,25,24.15,32.86,31.31,33.63A40.86,40.86,0,0,1,5.68,60.81a33.79,33.79,0,0,1,8-42.66C19.85,13.24,26.65,13.05,32.88,13.26Z"/><path id="_路径_5" data-name="&lt;路径&gt;" class="cls-5" d="M32.92,13.26s-3,3-2.1,10.54c.47,4.22-2.15,8.73-5.8,12.27A21.69,21.69,0,0,1,17.14,41,11.7,11.7,0,0,0,9,49.85a8.41,8.41,0,0,1,2.76-6.44,13.62,13.62,0,0,1,5.39-3.09C21.39,38.8,30.4,32.61,30,24a19.65,19.65,0,0,1,.29-5.6A11.09,11.09,0,0,1,32.92,13.26Z"/><path id="_路径_6" data-name="&lt;路径&gt;" class="cls-6" d="M1.27,45.87S-.08,23.13,18.75,15.13a29.89,29.89,0,0,1,14.13-1.87S22.49,12.88,14,19.41A32.24,32.24,0,0,0,3.92,31.85C2.28,35.5,1.38,39.56,1.27,45.87Z"/><path id="_路径_7" data-name="&lt;路径&gt;" class="cls-7" d="M1.25,46.44a37,37,0,0,1,1.6-18C6.91,16.28,18.59,1.37,41.39.24A49.23,49.23,0,0,0,20.71,7.43C10.5,13.86.32,26,1.25,46.44Z"/><path id="_路径_8" data-name="&lt;路径&gt;" class="cls-8" d="M41.66.51A35.47,35.47,0,0,1,41.84,11a39.77,39.77,0,0,1-3.38,11.73,36,36,0,0,1-9.59,12.46C26.67,37,22.23,40.43,18,41.77A11.26,11.26,0,0,0,11,48.5c-2.07,4.76.29,13.34,4,17.91,4.11,5,9.38,11,24,15.4,0,0-1.64-.5-4.12-1.48A41.1,41.1,0,0,1,14.91,64c-5.55-9-3.22-14.6-1.09-17.55a11.14,11.14,0,0,1,3.31-3c5.53-2.68,12.39-5,18.63-14.09A36.91,36.91,0,0,0,41.66.51Z"/><g id="_编组_" data-name="&lt;编组&gt;"><path id="_路径_9" data-name="&lt;路径&gt;" class="cls-2" d="M15.57,50.58s-2.2-3.46,2.63-5.09A44.08,44.08,0,0,0,39,30.69,48,48,0,0,0,49,7.14s7.73-1.32,16.21,8.09h0a16.36,16.36,0,0,1,1,1.61L65.1,18.47s7.8,2.4,10.68,10.1c0,0,.18.38.61,1.67l-2.61,2.53s6.57,5.38,6,13.59a14.65,14.65,0,0,1-.26,2.27s-1.43.81-3.21,1.72a21.72,21.72,0,0,1-3,13.65,21.1,21.1,0,0,1-1.87,2.31s-1.86.24-2.32.34a40.56,40.56,0,0,1-2.89,5.86L62,76.61l-1.5,1.1S31.09,81,15.57,50.58Z"/><path id="_路径_10" data-name="&lt;路径&gt;" class="cls-9" d="M17.36,45.82s30.79-3.21,47.77-31.21A18.45,18.45,0,0,0,48.88,6.69a45.92,45.92,0,0,1-4,13.93A49,49,0,0,1,17.36,45.82Z"/><path id="_路径_11" data-name="&lt;路径&gt;" class="cls-9" d="M17,46.59s33.4,7.87,58.64-18.31A18.43,18.43,0,0,0,65.29,18.12S50.67,43.24,17,46.59Z"/><path id="_路径_12" data-name="&lt;路径&gt;" class="cls-9" d="M16.48,47.64S45.3,65.33,79.72,46.23a18.61,18.61,0,0,0-5.36-14,46.7,46.7,0,0,1-3.73,3.19A64.87,64.87,0,0,1,16.48,47.64Z"/><path id="_路径_13" data-name="&lt;路径&gt;" class="cls-9" d="M16.47,48.55s21.81,22.09,56.9,15.28a19.06,19.06,0,0,0,2.9-13.48S47,66,16.47,48.55Z"/><path id="_路径_14" data-name="&lt;路径&gt;" class="cls-9" d="M16.06,49.63a54.41,54.41,0,0,0,6.76,9.89A49.7,49.7,0,0,0,62,76.61a18.72,18.72,0,0,0,7.06-10A63.54,63.54,0,0,1,37.3,63,62.84,62.84,0,0,1,16.06,49.63Z"/><path id="_路径_15" data-name="&lt;路径&gt;" class="cls-10" d="M16.09,49.65a27.14,27.14,0,0,0,2.35,3.43c4.39,5.66,17.37,22.19,46.19,21.25l-.27.28a10.81,10.81,0,0,1-2.35,2c-6.43.25-21.49-1.08-33.53-11.52-.9-.77-3.38-3-4.22-4A50.21,50.21,0,0,1,16.09,49.65Z"/><path id="_路径_16" data-name="&lt;路径&gt;" class="cls-10" d="M16.53,48.6S38.31,70.9,73.27,64a18.17,18.17,0,0,0,1.58-2.83A49.56,49.56,0,0,1,63.9,62.94C52.81,63.73,34.11,62.79,16.53,48.6Z"/><path id="_路径_17" data-name="&lt;路径&gt;" class="cls-10" d="M16.5,47.65S44.87,65.4,79.69,46.29a9.89,9.89,0,0,0-.13-3.42S52.08,63.13,16.5,47.65Z"/><path id="_路径_18" data-name="&lt;路径&gt;" class="cls-10" d="M17,46.61s33.68,7.83,58.64-18.33a20.13,20.13,0,0,0-1.65-3S52.87,51.22,17,46.61Z"/><path id="_路径_19" data-name="&lt;路径&gt;" class="cls-10" d="M17.36,45.82s30.77-3,47.77-31.21a7.78,7.78,0,0,0-1.71-2.14S51.6,37.85,17.36,45.82Z"/></g><path id="_路径_20" data-name="&lt;路径&gt;" class="cls-11" d="M1.38,46.44a35.91,35.91,0,0,1,1.47-18C6.91,16.28,18.59,1.37,41.39.24A49.23,49.23,0,0,0,20.71,7.43C10.5,13.86.45,26,1.38,46.44Z"/><path id="_路径_21" data-name="&lt;路径&gt;" class="cls-6" d="M14.59,28.37a37.39,37.39,0,0,0-3.39,6.79A31.72,31.72,0,0,0,9,48.86S8.58,40.26,14.59,28.37Z"/></g><path class="cls-1" d="M112.5,4.64h6.91c.3,0,.45.18.45.53v4h8.92a14.27,14.27,0,0,0,3.13-1.32c3.86.53,5.8,1.15,5.8,1.86v5.57c0,.54-.15.8-.45.8h-17.4V26.42h9.59A17.67,17.67,0,0,0,133,24.83c3.72.71,5.58,1.32,5.58,1.86v5.84c0,.53-.15.8-.44.8H110.49q-.45.8-6.25,9.56v7.7l1.34.27H137c.3,0,.45.18.45.53v5.84c0,.36-.15.53-.45.53H102.68q-5.36,0-5.36-5.31V45.81H94c-.3,0-.45-.17-.45-.53V39.17c0-.35.15-.53.45-.53h3.79q.67,0,3.57-5v-.26H94c-.3,0-.45-.27-.45-.8V27c0-.35.15-.53.45-.53h18.07V16.06H94.87c-.3,0-.45-.26-.45-.8V9.69q0-.54.45-.54h17.18v-4C112.05,4.82,112.2,4.64,112.5,4.64Zm16.95,32.14h8c-1.2,6-3.72,9-7.59,9H108.26c-.3,0-.45-.17-.45-.53V40c0-.53.15-.8.45-.8h17.85C127.15,39.17,128.26,38.37,129.45,36.78Z"/><path class="cls-1" d="M153.11,15.8h5.57a1.26,1.26,0,0,1,1.12,1.32v29q0,11.69-6.69,11.68H150q-1.11,0-1.11-1.32V50.86c0-.71,1-1.06,3.12-1.06V17.12C152.14,16.24,152.51,15.8,153.11,15.8ZM152.44,6h37.93a1.27,1.27,0,0,1,1.11,1.33v43h.45a4.31,4.31,0,0,1,1.56-.53v6.64c0,.88-.37,1.32-1.12,1.32H188.8q-5.79,0-5.8-7.43V13.4H152.44q-.9,0-.9-1.32V7.3C151.54,6.41,151.84,6,152.44,6Z"/><path class="cls-1" d="M205.54,6H248.6c.3,0,.45.18.45.53v13a41.76,41.76,0,0,1-3.79,5H205.54c-.3,0-.45-.26-.45-.8V6.5C205.09,6.15,205.24,6,205.54,6Zm39.27,19.12q3.8,1.59,4.24,2.39v6.38c0,.35-.15.53-.45.53H219.15a26,26,0,0,0-4.24,5.84H248.6c.3,0,.45.18.45.53V55.11q0,4-4.91,4H225c-.45,0-.67-.18-.67-.53V53c.15-.53.37-.79.67-.79H241l.22-2.13V47.67h-35.7c-.3,0-.45-.17-.45-.53v-5l4.69-7.44v-.26h-4.24c-.3,0-.45-.18-.45-.53V28c0-.53.15-.79.45-.79H242.8ZM212.68,12.87v4.52h28.56V12.87Z"/><path class="cls-1" d="M279.84,5.17h6.69c.45,0,.67.62.67,1.86h11.38c1-1.24,1.79-1.86,2.23-1.86q4,1.59,4,2.39v6.11c0,.36-.15.53-.45.53H301q-2,3.47-2,4.78h4.46c.45,0,.67.18.67.53V54.05q-.68,4-2.9,4h-5.58c-.44,0-.67-.18-.67-.53V52.19c0-.36.6-.62,1.79-.8v-26h-5.13V28c.14.54.36.8.66.8h2.46c.3,0,.45.18.45.53v5.05c0,.53-.15.8-.45.8h-5.36a12.51,12.51,0,0,0-2.23.26c-1,0-1.86-.8-2.45-2.39q.22-4,.22-6.64V25.36h-4V27c0,1.24.07,2.75.22,4.52a4.64,4.64,0,0,1-1.79,4h-8.25c-.3,0-.45-.26-.45-.8v-5c0-.35.15-.53.45-.53H274l.22-1.6V25.36h-4.91v32.4c0,.36-.15.54-.44.54h-6.7c-.44,0-.67-.18-.67-.54V19.51a.73.73,0,0,1,.67-.53h5.58A28.79,28.79,0,0,1,266,14.2h-4.69c-.3,0-.45-.17-.45-.53V7.56c0-.35.15-.53.45-.53h18.07Q279.39,5.17,279.84,5.17Zm-8.26,32.14h22.76c.3,0,.45.18.45.53V51.65a17.55,17.55,0,0,1-3.35,4.25H271.58c-.3,0-.44-.17-.44-.53V37.84C271.14,37.49,271.28,37.31,271.58,37.31Zm3.13-23.11A29.53,29.53,0,0,1,276.49,19h13.17a26.09,26.09,0,0,0,2.67-4.25V14.2ZM278.05,44v5.58h9.38c.44-.17.67-1.06.67-2.66V44.48c0-.35-.15-.53-.45-.53Z"/><path class="cls-1" d="M347.45,6h5.35c.45,0,.67.18.67.53V10h1.12a24.05,24.05,0,0,0-.67-3.72c.14,0,.22-.08.22-.26q6.92,5.84,6.92,9-.9,1.07-4.24,2.12a21.6,21.6,0,0,0-2.9-.26h-.45V40.5h.45c.29,0,.44-.18.44-.53V20.58c.15-.53.37-.8.67-.8h3.8a.88.88,0,0,1,.44.8V44.22a3.35,3.35,0,0,1-1.56,2.92h-4.24v2.39a1.41,1.41,0,0,0,.67,1.06h5.13c.3,0,.45.18.45.53V55.9c0,.54-.15.8-.45.8h-6a12.56,12.56,0,0,0-2.46.27c-2.23,0-3.49-1.69-3.79-5V16.86h-9.37v4h7.59c.29,0,.44.18.44.53V52.45q0,4.24-2.68,4.25h-4.9q-.45,0-.45-1.59h-.22c0,1.59-.67,2.39-2,2.39H316.88c-.3,0-.45-.18-.45-.53v-5c0-.35.15-.53.45-.53H320V16.86h-3.12c-.3,0-.45-.18-.45-.53V11c0-.35.15-.53.45-.53H320V6.76c0-.35.15-.53.45-.53h5.35c.45,0,.67.18.67.53v3.46c.45-.53.82-.8,1.12-.8,1.19.53,1.78,1,1.78,1.33v5.58c0,.35-1,.62-2.9.79v34h.23l.89-.79a11.75,11.75,0,0,0,3.35,1.32l.44-.79V10.48a.73.73,0,0,1,.67-.53H347V6.5C347.15,6.15,347.3,6,347.45,6Zm-9.82,21.51V51.12h1.78V27.48Z"/><g id="domain"><path class="cls-12" d="M255.49,79.91a4.22,4.22,0,0,1-.81.18,8.11,8.11,0,0,1-1.26.09,7.65,7.65,0,0,1-2.75-.5q-.12-1.56-.12-3v-4c0-.76,0-1.64.07-2.66s.1-1.83.17-2.43l1.93-.32v-.1h-5.89v.1l1.93.32a10.94,10.94,0,0,1,.11,1.24c0,.5.06,1.08.08,1.74s0,1.26,0,1.77v2.34c0,.33,0,.91,0,1.72s-.06,1.59-.1,2.35a14.51,14.51,0,0,1-.16,1.59l-1.87.32v.1h9.25l.36-3.39h-.11Zm-5.75.49h-.55V67.53h.55Z"/><path class="cls-12" d="M264.5,74.47a18.1,18.1,0,0,0-1.7-.94v0a3.06,3.06,0,0,0,1.68-1.2,3.26,3.26,0,0,0,.61-1.93,3.6,3.6,0,0,0-.41-1.71,2.9,2.9,0,0,0-1.18-1.2,3.72,3.72,0,0,0-1.81-.42,3.78,3.78,0,0,0-1.64.32,2.9,2.9,0,0,0-1.09.84,3.31,3.31,0,0,0-.57,1.1,4.17,4.17,0,0,0-.17,1.16,3.76,3.76,0,0,0,.24,1.35,4.1,4.1,0,0,0,.66,1.15,5.12,5.12,0,0,0,1,.92,3.34,3.34,0,0,0-1.51.69,3.23,3.23,0,0,0-.92,1.25,3.81,3.81,0,0,0-.31,1.53,3.4,3.4,0,0,0,.77,2.3,3.13,3.13,0,0,0,1.42,1,6.26,6.26,0,0,0,2.11.31,6.54,6.54,0,0,0,2.14-.28,3.07,3.07,0,0,0,1.25-.88,3.64,3.64,0,0,0,.87-2.4,3.4,3.4,0,0,0-.42-1.76A3.21,3.21,0,0,0,264.5,74.47Zm-2.41-7.19a2.65,2.65,0,0,1,1.67,1,3.45,3.45,0,0,1,.64,2.15,3,3,0,0,1-1.91,2.88l-.1,0a2.36,2.36,0,0,0,.84-.69,3.1,3.1,0,0,0,.51-1,4.08,4.08,0,0,0,.16-1.17,4.34,4.34,0,0,0-.43-1.91,2.09,2.09,0,0,0-1.38-1.15Zm-.37.29a1.65,1.65,0,0,1,1.35.76,3.56,3.56,0,0,1,.56,2.12,3.25,3.25,0,0,1-.46,1.8,2,2,0,0,1-1.05.92,8.06,8.06,0,0,1-1.1-.72,3.77,3.77,0,0,1-.77-.78,2.85,2.85,0,0,1-.42-.81,2.74,2.74,0,0,1-.13-.85,2.84,2.84,0,0,1,.26-1.24,2.2,2.2,0,0,1,.74-.88A1.76,1.76,0,0,1,261.72,67.57Zm-.88,13.08a3.39,3.39,0,0,1-1.69-.51,3.1,3.1,0,0,1-1.13-1.2,3.26,3.26,0,0,1-.41-1.6,3.57,3.57,0,0,1,.34-1.53,3.22,3.22,0,0,1,1-1.17,3.44,3.44,0,0,1,1.42-.62l.05.06a2.88,2.88,0,0,0-1.7,1.32,3.63,3.63,0,0,0-.57,1.89,3.79,3.79,0,0,0,.31,1.46,3.08,3.08,0,0,0,.94,1.21,2.75,2.75,0,0,0,1.48.59Zm-.61-.69a2.66,2.66,0,0,1-1-1.1,4,4,0,0,1,.19-3.59,2.07,2.07,0,0,1,1.23-1,10.37,10.37,0,0,0,1.24.68,15,15,0,0,1,1.31.74,2.47,2.47,0,0,1,.75.79,2.42,2.42,0,0,1,.3,1.26,2.9,2.9,0,0,1-.25,1.13,2.58,2.58,0,0,1-.84,1.06,2.38,2.38,0,0,1-1.45.44A2.75,2.75,0,0,1,260.23,80Zm4.59-1a2.58,2.58,0,0,1-.9,1.15,3,3,0,0,1-1.66.54v-.09a2.39,2.39,0,0,0,1.67-.94,3,3,0,0,0,.61-1.9,2.65,2.65,0,0,0-.59-1.75,2.88,2.88,0,0,0-.72-.62c-.29-.17-.73-.42-1.33-.73a14.26,14.26,0,0,1-1.47-.85,5.66,5.66,0,0,1-1.07-1,3.72,3.72,0,0,1-.66-1.12,3.38,3.38,0,0,1-.22-1.16A3.27,3.27,0,0,1,259,68.7a3.07,3.07,0,0,1,1.14-1.1,2.74,2.74,0,0,1,1.28-.36v.11a2.46,2.46,0,0,0-1.39.59,2.88,2.88,0,0,0-.78,1.13A3.75,3.75,0,0,0,259,70.3a3,3,0,0,0,.23,1.11,4.15,4.15,0,0,0,.65,1.07,4.43,4.43,0,0,0,.95.83c.36.23.84.51,1.43.81s1.06.57,1.39.77a3.58,3.58,0,0,1,.83.71,2.84,2.84,0,0,1,.64,1.86A4,4,0,0,1,264.82,78.93Z"/><path class="cls-12" d="M279.1,76.16v-3.1c0-1,0-2.08.06-3.16a19.56,19.56,0,0,1,.18-2.32l1.59-.3v-.1h-5.66v.1l2.06.3c.05.42.08.79.11,1.09s.05.7.07,1.2,0,1,0,1.49c0,.83,0,1.55-.06,2.15a15.3,15.3,0,0,1-1.81.21c-.66,0-1.37,0-2.12,0a16,16,0,0,1-3.41-.26c0-.76,0-1.4,0-1.92s0-1.33.06-2.19a17.21,17.21,0,0,1,.14-1.8l2.07-.32v-.1H266.7v.1l1.59.3q.06.39.12,1.2c0,.55.07,1.1.08,1.66s0,.88,0,1v3.43c0,.54,0,1.22,0,2s-.06,1.52-.1,2.16-.08,1.08-.12,1.33l-1.57.32v.1h5.68v-.1l-2.05-.32a14,14,0,0,1-.17-1.84c0-.78,0-1.47,0-2.06,0-1,0-1.71,0-2.18h7.36q0,.75.06,1.44c0,.47,0,.86,0,1.18a29.78,29.78,0,0,1-.26,3.46l-2,.32v.1H281v-.1l-1.61-.32A26.78,26.78,0,0,1,279.1,76.16Zm-9.82,4.24h-.54V67.55h.54Zm9,0h-.55V67.53h.55Z"/><path class="cls-12" d="M291.13,76.63l-3.37-9.58h-.62L283.53,78a21.44,21.44,0,0,1-.95,2.38l-1.44.32v.1h4.36v-.1l-2-.32a7.17,7.17,0,0,1,.23-1.09c.11-.43.24-.85.36-1.25l.51-1.54h4.88a11.83,11.83,0,0,1,.7,1.88,13.4,13.4,0,0,1,.43,2l-2.12.32v.1H294v-.1l-1.29-.32A39.37,39.37,0,0,1,291.13,76.63ZM287,76l-1.16,0a9.55,9.55,0,0,1-1.07-.1c.06-.2.2-.61.4-1.23s.4-1.21.59-1.76.39-1.14.62-1.77.42-1.11.56-1.44c.39.86.82,1.93,1.3,3.22s.8,2.28,1,3A15.24,15.24,0,0,1,287,76Zm4.11,4.42-4-11.53.25-.78,4.31,12.31Z"/><path class="cls-12" d="M305.75,69.37A5.79,5.79,0,0,0,300.88,67a5.69,5.69,0,0,0-2.53.57,5.87,5.87,0,0,0-2,1.56,7.2,7.2,0,0,0-1.28,2.26,7.93,7.93,0,0,0-.44,2.6,7.65,7.65,0,0,0,.7,3.12,6.49,6.49,0,0,0,2.15,2.68A5.78,5.78,0,0,0,301,80.86a5.72,5.72,0,0,0,2.63-.6,6,6,0,0,0,2-1.61,7.32,7.32,0,0,0,1.21-2.23,7.75,7.75,0,0,0,.41-2.47,7.88,7.88,0,0,0-1.5-4.58Zm-5.17,11.21a5,5,0,0,1-2.86-1,6.53,6.53,0,0,1-2-2.48,7.19,7.19,0,0,1-.74-3.14,7.19,7.19,0,0,1,1.67-4.65,6,6,0,0,1,1.82-1.48,4.58,4.58,0,0,1,2.13-.56v.09a4.94,4.94,0,0,0-2.06.69,5.47,5.47,0,0,0-1.6,1.47,6.88,6.88,0,0,0-1,2.07,8.15,8.15,0,0,0-.36,2.42,7.58,7.58,0,0,0,.61,3,6.22,6.22,0,0,0,1.76,2.4,5,5,0,0,0,2.68,1.12Zm.36-.34a3.79,3.79,0,0,1-2.13-.69,4.94,4.94,0,0,1-1.69-2.13,9.58,9.58,0,0,1-.05-6.86,5,5,0,0,1,1.63-2.17,3.68,3.68,0,0,1,2.23-.75,4,4,0,0,1,1.61.34,3.78,3.78,0,0,1,1.4,1.08,5.85,5.85,0,0,1,1.1,2,10.26,10.26,0,0,1,.38,3.08,8.56,8.56,0,0,1-.36,2.56,5.94,5.94,0,0,1-1,1.93,4.37,4.37,0,0,1-1.44,1.19A3.71,3.71,0,0,1,300.94,80.24Zm5-3.55a6.52,6.52,0,0,1-1.1,2.08,5,5,0,0,1-1.6,1.3,4.75,4.75,0,0,1-1.89.51v-.1a4.37,4.37,0,0,0,2-.73,4.64,4.64,0,0,0,1.38-1.51,6.57,6.57,0,0,0,.76-2,11.47,11.47,0,0,0-.16-5.34,5.48,5.48,0,0,0-1.08-2,4.34,4.34,0,0,0-1.43-1.12,4.74,4.74,0,0,0-1.52-.42v-.09a4.57,4.57,0,0,1,1.84.45A5.05,5.05,0,0,1,304.77,69a6.05,6.05,0,0,1,1.14,2.09,8.81,8.81,0,0,1,.43,2.9A8.58,8.58,0,0,1,305.93,76.69Z"/><path class="cls-12" d="M309.74,78.58a.86.86,0,0,0-.69.34,1.22,1.22,0,0,0-.28.82,1.2,1.2,0,0,0,.27.79.89.89,0,0,0,1.38,0,1.16,1.16,0,0,0,.28-.79,1.22,1.22,0,0,0-.28-.82A.83.83,0,0,0,309.74,78.58Zm0,2a.7.7,0,0,1-.51-.27,1,1,0,0,1,0-1.13.7.7,0,0,1,.51-.29Z"/><path class="cls-12" d="M321.71,79.76a4.62,4.62,0,0,1-1.95.42,4.7,4.7,0,0,1-2-.43,5.05,5.05,0,0,1-1.69-1.28,6,6,0,0,1-1.15-2,7.85,7.85,0,0,1-.42-2.61,8.59,8.59,0,0,1,.58-3.24,4.68,4.68,0,0,1,1.72-2.17,4.83,4.83,0,0,1,2.75-.76,9,9,0,0,1,1.18.07c.37,0,.76.12,1.15.2l.83.18.52,2.07h.09l-.09-3.12a9,9,0,0,1-1.63.09c-.37,0-.91,0-1.61-.09l-.58,0L319,67h-.41a5.63,5.63,0,0,0-2.35.5A5.73,5.73,0,0,0,314.36,69a6.84,6.84,0,0,0-1.26,2.27,8.94,8.94,0,0,0-.45,2.89,8,8,0,0,0,.38,2.42,6.68,6.68,0,0,0,1.17,2.18,5.58,5.58,0,0,0,2,1.57,6.45,6.45,0,0,0,2.78.58c.26,0,.63,0,1.09-.08a10.86,10.86,0,0,1,1.12-.07c.22,0,.58,0,1.08.07l1.16-2.54-.09,0A4,4,0,0,1,321.71,79.76Zm-1.81.86c-.12,0-.38,0-.8,0a6,6,0,0,1-2.52-.52,5.57,5.57,0,0,1-1.95-1.44,6.32,6.32,0,0,1-1.23-2.1A7.38,7.38,0,0,1,313,74.1a8.58,8.58,0,0,1,.41-2.67,6.73,6.73,0,0,1,1.19-2.19,5.59,5.59,0,0,1,1.91-1.49,5.88,5.88,0,0,1,2.49-.53h.92v.13h-.55a5.48,5.48,0,0,0-2.6.58,5.25,5.25,0,0,0-1.81,1.55,7,7,0,0,0-1,2.15,8.69,8.69,0,0,0-.33,2.37,7.74,7.74,0,0,0,.38,2.42,6.37,6.37,0,0,0,1.17,2.12,5.32,5.32,0,0,0,2,1.47,6.59,6.59,0,0,0,2.77.49Z"/><path class="cls-12" d="M335.7,69.37A5.79,5.79,0,0,0,330.83,67a5.69,5.69,0,0,0-2.53.57,5.87,5.87,0,0,0-2,1.56A7.2,7.2,0,0,0,325,71.38a7.93,7.93,0,0,0-.44,2.6,7.65,7.65,0,0,0,.7,3.12,6.49,6.49,0,0,0,2.15,2.68A5.78,5.78,0,0,0,331,80.86a5.72,5.72,0,0,0,2.63-.6,6,6,0,0,0,2-1.61,7.32,7.32,0,0,0,1.21-2.23,7.87,7.87,0,0,0-1.09-7Zm-5.17,11.21a5,5,0,0,1-2.86-1,6.53,6.53,0,0,1-2-2.48,7.19,7.19,0,0,1-.74-3.14,7.34,7.34,0,0,1,.44-2.52,7.15,7.15,0,0,1,1.23-2.13,6,6,0,0,1,1.82-1.48,4.58,4.58,0,0,1,2.13-.56v.09a4.89,4.89,0,0,0-2.06.69,5.47,5.47,0,0,0-1.6,1.47,7.14,7.14,0,0,0-1,2.07,8.48,8.48,0,0,0-.35,2.42,7.58,7.58,0,0,0,.61,3,6.22,6.22,0,0,0,1.76,2.4,5,5,0,0,0,2.68,1.12Zm.36-.34a3.79,3.79,0,0,1-2.13-.69,4.94,4.94,0,0,1-1.69-2.13,9.58,9.58,0,0,1-.05-6.86,5,5,0,0,1,1.62-2.17,3.73,3.73,0,0,1,2.24-.75,4,4,0,0,1,1.61.34,3.78,3.78,0,0,1,1.4,1.08,5.85,5.85,0,0,1,1.1,2,10.26,10.26,0,0,1,.38,3.08,8.56,8.56,0,0,1-.36,2.56,5.94,5.94,0,0,1-1,1.93,4.47,4.47,0,0,1-1.44,1.19A3.71,3.71,0,0,1,330.89,80.24Zm5-3.55a6.52,6.52,0,0,1-1.1,2.08,5,5,0,0,1-1.6,1.3,4.79,4.79,0,0,1-1.89.51v-.1a4.37,4.37,0,0,0,2-.73,4.64,4.64,0,0,0,1.38-1.51,6.84,6.84,0,0,0,.76-2,11.47,11.47,0,0,0-.16-5.34,5.48,5.48,0,0,0-1.08-2,4.34,4.34,0,0,0-1.43-1.12,4.81,4.81,0,0,0-1.52-.42v-.09a4.57,4.57,0,0,1,1.84.45A5.05,5.05,0,0,1,334.72,69a6.05,6.05,0,0,1,1.14,2.09,9.09,9.09,0,0,1,.42,2.9A8.59,8.59,0,0,1,335.88,76.69Z"/><path class="cls-12" d="M353,80.35a14.87,14.87,0,0,1-.36-2.69c-.13-1.51-.24-3.15-.33-4.91s-.14-2.93-.14-3.5,0-1.09.05-1.63l2.07-.34v-.1H351a34.47,34.47,0,0,1-1.31,3.34l-2,4.47c-.65,1.49-1.13,2.53-1.43,3.11a26.4,26.4,0,0,1-1.35-2.61l-2.2-4.84c-.28-.63-.51-1.18-.71-1.65s-.44-1.07-.72-1.82h-3.35v.1l1.32.34a3.71,3.71,0,0,1,.88,1.2c0,.5,0,.88,0,1.12,0,.69-.05,1.8-.14,3.33s-.2,3-.33,4.49a23.48,23.48,0,0,1-.29,2.57l-1.49.34v.1h3.83v-.1l-1.48-.34c0-.56,0-1,0-1.27s0-1,.05-1.71.08-1.6.15-2.62.13-2,.2-2.86.13-1.44.17-1.69c.28.57.63,1.33,1.06,2.28l2.55,5.61c.16.35.37.84.63,1.46s.46,1.08.57,1.37h.1c.17-.48.49-1.27,1-2.38l3-6.76c.27-.6.52-1.13.77-1.6a13.59,13.59,0,0,1,.22,1.58c.08.78.14,1.63.2,2.55s.09,1.73.12,2.44,0,1.28,0,1.72c0,.79,0,1.43-.07,1.9l-1.85.32v.1h5.34v-.1Zm-7.54-.42-5.63-12.38h.55l5.36,11.75Zm6,.47-.69-11.17.45-1.08h0L352,80.4Z"/><path class="cls-12" d="M105.65,76.24c-.85,0-2.22-1-4.09-2.78q-1.29,5.12,1,7.82,1.71,2.06,10.16,1.52Q110.27,77.24,105.65,76.24Z"/><path class="cls-12" d="M110.69,72.83a8.4,8.4,0,0,0,1.37-2.78q-2.4-2.7-7.35.27a4.5,4.5,0,0,1-4,.53,5.91,5.91,0,0,0-.42-2.69,64.71,64.71,0,0,0,7-1.71c.39-.6-.12-1.17-1.54-1.71a9.64,9.64,0,0,0-3.33-.71q-5.8.18-7.6.89-.51,1.71,3.42,3.78l1.71-.45A16.88,16.88,0,0,1,99,70.94a7.79,7.79,0,0,1-2.39-.54,7.54,7.54,0,0,1-1.54-.53,3,3,0,0,0-3.24,1.79,1.51,1.51,0,0,0,.51,1.26,1.67,1.67,0,0,0,1.36.54q1.29-.81,5-1.08a21.79,21.79,0,0,1-1.45,4q-.44.81-4.87,6.56,5.73.36,7.26-3.59a18.13,18.13,0,0,0,.94-6.38,27.84,27.84,0,0,1,5.72,1.44Q108.89,75.44,110.69,72.83Z"/><path class="cls-12" d="M127.5,76.24c-.85,0-2.22-1-4.09-2.78q-1.29,5.12,1,7.82,1.71,2.06,10.16,1.52Q132.12,77.24,127.5,76.24Z"/><path class="cls-12" d="M132.54,72.83a8.6,8.6,0,0,0,1.37-2.78q-2.4-2.7-7.35.27a4.5,4.5,0,0,1-4,.53,5.91,5.91,0,0,0-.42-2.69,63.2,63.2,0,0,0,7-1.71q.6-.9-1.53-1.71a9.64,9.64,0,0,0-3.33-.71q-5.81.18-7.6.89-.51,1.71,3.42,3.78l1.7-.45a16.18,16.18,0,0,1-.93,2.69,7.79,7.79,0,0,1-2.39-.54,7.54,7.54,0,0,1-1.54-.53,3,3,0,0,0-3.24,1.79,1.51,1.51,0,0,0,.51,1.26,1.67,1.67,0,0,0,1.36.54q1.29-.81,5-1.08a21.79,21.79,0,0,1-1.45,4q-.44.81-4.87,6.56c3.82.24,6.23-1,7.26-3.59a18.13,18.13,0,0,0,.94-6.38,27.84,27.84,0,0,1,5.72,1.44Q130.74,75.44,132.54,72.83Z"/><path class="cls-12" d="M143.46,81.9V81l-.25-1a9.91,9.91,0,0,0-1.71-4.58,14.14,14.14,0,0,0,1.2-2c1-2.34,1-3.92.17-4.76-.17-.18-.29-.27-.34-.27l-.09.09c.11-.06.09.51-.08,1.71a11.46,11.46,0,0,1-1.88,4q.17.09-2.22-2.25c.05.12.57-.72,1.53-2.51q4.11-1.89,4.27-2a6,6,0,0,0-3.41.09q.25-.72.42-1.35a2.49,2.49,0,0,0-.42-1.08,2.91,2.91,0,0,0-.86-1v.36a11.36,11.36,0,0,1-.93,3.5q-4.28,1-3.42,2.25a6.44,6.44,0,0,0,1.71.44l.42-.18c-.11.18-.25.4-.42.63a2.2,2.2,0,0,1-.26.45.58.58,0,0,0,0,.45,26.7,26.7,0,0,1,2.48,3.6,9,9,0,0,1-.6.71l-3.33,3.78q2,1,4.78-2.88a10.78,10.78,0,0,1,1,3.42q.08.72,1.11,1.17C143.09,82.05,143.46,82.08,143.46,81.9Z"/><path class="cls-12" d="M156.52,71.39l-.17.36A.36.36,0,0,0,156.52,71.39Z"/><path class="cls-12" d="M151.91,71l-1.87.81-1.63-.09-.34-1.52q5.81-1.89,5.47-4.23a2.34,2.34,0,0,0-1.63-2.24,11,11,0,0,0-4-.54,4.45,4.45,0,0,0-1.28.18c-1.88.6-2.87,1.5-3,2.69q0,.72.42.63l.43-.36a6.24,6.24,0,0,1,3.58-1.17,18.86,18.86,0,0,1,2.73.18q.34.72-3.49,3.15c-1-.78-1.66-1-1.88-.81A6.41,6.41,0,0,1,146.88,72q-3.07-.18-3.93,1.08c-.57,1.32-.59,1.86-.08,1.62a13.93,13.93,0,0,1,4-1.17c.45,2.28.2,4.07-.77,5.39A17.93,17.93,0,0,1,143,82.53c.06.6.86,1,2.39,1.17a9.46,9.46,0,0,0,3.76-.18c1.7-.3,2.13-2,1.28-5.21a31.53,31.53,0,0,0-1.79-4.76,8.29,8.29,0,0,1,2.73,1.62c2,1.73,3.67.6,5-3.42l-1.62-.54A4,4,0,0,0,151.91,71Z"/><path class="cls-12" d="M173.08,76.78a4.51,4.51,0,0,0-.43,1c-.17.06.15.15.94.27a4.77,4.77,0,0,0,2.56-.45c.69-.36.69-1.22,0-2.6a8.61,8.61,0,0,0-1.28-2q-2.38-1.35-7.76-.63-4.7.63-6.23,1.71a.18.18,0,0,0,0,.1,2.1,2.1,0,0,0-.64-.1,6.82,6.82,0,0,1-.77.18c-.28,2.81-.28,4.49,0,5q1.53,0,2.13-2.61a2.62,2.62,0,0,0-.11-2,4.89,4.89,0,0,0,1.65.07q7.68-.9,8.36-.63c1.37.42,2,1,1.88,1.71A2.77,2.77,0,0,1,173.08,76.78Z"/><path class="cls-12" d="M160.28,69.33c-.91,1-1.25,1.79-1,2.51.12.36.54.66,1.28.9a3.21,3.21,0,0,0,2,.09,10.64,10.64,0,0,1,1.62-2.07,13.93,13.93,0,0,1-.26-3.59c-.05.12.26-.06.94-.54.29-.24.2-.63-.25-1.17a2.49,2.49,0,0,0-1.11-.89c-.74.12-2,1.16-3.84,3.14s-2.51,2.94-2.39,3.23c1-.18,2.47-1.28,4.52-3.32A9.07,9.07,0,0,1,160.28,69.33Z"/><path class="cls-12" d="M167.79,76.15a6.46,6.46,0,0,0,.08-.8c.06-.42-.17-.57-.68-.45s-.77,0-.77-.36c0,.66-.88,1.77-2.47,3.32a16.09,16.09,0,0,1-6.4,3.42,9.24,9.24,0,0,0,7.59.45q1.29-.54,2.56-5.58v-.08Z"/><path class="cls-12" d="M176,69.6a7.13,7.13,0,0,0-4.18-.27,4.09,4.09,0,0,0-1.79,1,2.36,2.36,0,0,1-2.22.44c0-.83.14-1.25.43-1.25q4-.36,5.12-1.17c.45-.24.54-.78.25-1.62-2.61.36-4.18.54-4.69.54.8-1.26.68-2-.34-2.25a2.51,2.51,0,0,0-2.39.54,6,6,0,0,0-1.54,3.51c-.28,1.67,0,2.6.86,2.78.17.24.93.3,2.3.18a17.78,17.78,0,0,1,4.78.09,6.69,6.69,0,0,0,4.18-.36q1.11-.54,1.11-1.08a2.82,2.82,0,0,1-.94-.53A3.09,3.09,0,0,0,176,69.6Z"/><path class="cls-12" d="M172.74,78.49a15.18,15.18,0,0,1-2.82-1.26l-2.13-1.08h-.09a11.83,11.83,0,0,1,.77,2.7,4.25,4.25,0,0,0,1.37,2.43q1.78,1.25,7.25.71C176.87,80.08,175.41,78.91,172.74,78.49Z"/><path class="cls-12" d="M185.71,70.32a2.76,2.76,0,0,0,.52-.18q.59-.45.51-1.89,0-.63-.09-1.71c-.05-.84-.11-1.49-.17-2a7.71,7.71,0,0,0-1,2.6,7.84,7.84,0,0,0-.6,3.06A4.09,4.09,0,0,0,185.71,70.32Z"/><path class="cls-12" d="M196.72,70.32a17.06,17.06,0,0,0-1.79.8q.6-3.95-.43-4.4h-3.92a7.51,7.51,0,0,1,.08-2.07,1.48,1.48,0,0,0-1.28-.89c0,.48,0,1.56-.17,3.23a9.5,9.5,0,0,0-2.13.63c.06,0,0,.36-.26,1.08a7,7,0,0,0,2.22.09,21.3,21.3,0,0,1-.17,3c0-.24-.77-.24-2.3,0a1.68,1.68,0,0,0-1.37.81q.95,1.71,3.33,1.26.09,3.42-4.27,8.44a2.81,2.81,0,0,0,3.08.81c1-.48,1.56-1.67,1.62-3.59.11-.36.31-1.35.59-3s.46-2.6.52-2.78.56-.36,1.53-.36a3.78,3.78,0,0,1,2.56.81q2.82,2.25,4.78.18a5.93,5.93,0,0,0,1.37-2.43Q198.35,69.6,196.72,70.32Zm-3.07-.18c-.06.89-.17,1.34-.34,1.34l-1.54.18-1.62.18c.06-.66.14-1.73.26-3.23l2.05-.54,1.19.54Q193.82,68.7,193.65,70.14Z"/><path class="cls-12" d="M194.76,77.68c-.68.12-1.51-.33-2.47-1.35a5.3,5.3,0,0,1-1.2-1.61c0,.06.14,1.17.43,3.32a23,23,0,0,0,.6,3.51q1.62,3.86,7.59.44Q196.73,77.51,194.76,77.68Z"/><path class="cls-12" d="M180.93,71.48a11.59,11.59,0,0,1,.35,2.25.26.26,0,0,0,.17-.09,1.42,1.42,0,0,0,.17-.27,10.08,10.08,0,0,0,.85-3.5q.09-3.42-.51-3.6-2.06-.09-1.62,2.79C180.39,69.36,180.59,70.17,180.93,71.48Z"/><path class="cls-12" d="M184.6,75.71c0-.72,0-1.11.09-1.17a52.59,52.59,0,0,0-.17-6.29c-.23-2.34-.6-3.71-1.11-4.13a2.1,2.1,0,0,0-.51-.27l-.34-.18a44.19,44.19,0,0,1,.51,6.91,13.62,13.62,0,0,1-1.45,3.69,1.2,1.2,0,0,1-.17.36c-1.77,3.23-2.59,5.54-2.48,6.92q.51,4.22,3.24.53C184,79.69,184.83,77.56,184.6,75.71Z"/><path class="cls-12" d="M215.85,71.48h0Z"/><path class="cls-12" d="M203.89,67.89a2.57,2.57,0,0,1,.35,2.78c-.4.54-.55.84-.43.9q1,.36,4.95-.54c2.61-.59,4.35-.71,5.2-.36q1.78.75,1.89.81C217,71.54,218,70.7,219,69a2.64,2.64,0,0,0-.51-3.33,5.69,5.69,0,0,0-2.14-1.16q-3.66-1.17-3.84-1.17.6,0-5.54,2a11.23,11.23,0,0,1-3.16.45c-.8,0-1.25.09-1.37.27C202.5,65.82,203,66.45,203.89,67.89Zm2.65-1a5.31,5.31,0,0,0,1.71-.09,19,19,0,0,1,2.81-.45l3-.36c1.54-.3,2.36-.3,2.48,0-.06-.06-.23.54-.52,1.8-.17.78-.37,1.23-.59,1.35a3.06,3.06,0,0,1-1.11,0l-1.11-.09c-3,.3-4.19.39-3.67.27-2.05.3-3.08.39-3.08.27A6,6,0,0,0,205.09,67,3.71,3.71,0,0,1,206.54,66.9Z"/><path class="cls-12" d="M213.37,68.79a3.34,3.34,0,0,0,1.36-.81c.69-.54,1-.81.86-.81a18.47,18.47,0,0,0-4.7,0c-2.67.18-4,.42-4,.72S209,68.61,213.37,68.79Z"/><path class="cls-12" d="M213.71,75.71A1.6,1.6,0,0,0,212,74.45c0,.6-.91,1.79-2.73,3.59a23.51,23.51,0,0,0-3.5,3.95q2.47-.26,7.77-4.76C213.88,76.93,213.94,76.42,213.71,75.71Z"/><path class="cls-12" d="M209.36,75.8a.76.76,0,0,0-.69-.72q-5.8,4.48-5.8,5.84A5.28,5.28,0,0,0,205,79.57a35.89,35.89,0,0,1,3.16-2.34C209,76.82,209.41,76.33,209.36,75.8Z"/><path class="cls-12" d="M219.09,72.56q-2-1.08-7.09-.18a38.56,38.56,0,0,0-5,1,1.61,1.61,0,0,1,.68-.81,1.9,1.9,0,0,0,.68-.72,1.31,1.31,0,0,1-.68,0,2.43,2.43,0,0,0-.6.09,2.26,2.26,0,0,1-.51.09,37.38,37.38,0,0,0-5,2.16q-2.22,1.44,1.88,1.71a5.08,5.08,0,0,0,2.56-1.26,90.25,90.25,0,0,1,9.22-.18c1.93.42,2.73.9,2.39,1.44a4.85,4.85,0,0,1-.94.89,4.44,4.44,0,0,0-1,.9,8.63,8.63,0,0,1-2.82,3c-1.14.66-1.74,1.2-1.79,1.61,2.16.78,3.38.93,3.67.45,2.27-.12,3.5-.21,3.67-.27a4.32,4.32,0,0,0,2-2.6,27.4,27.4,0,0,0,1.79-4.94C221.9,74.36,220.91,73.58,219.09,72.56Z"/><path class="cls-12" d="M225.83,71.93l.51-2.42s-.06-.48-.17-1.44q-.09-.81,3.84-.63.26,0,.09,2.79c-.12,2,0,3.35.42,4,.74,0,1.25-1.35,1.54-4,.34-2.22.2-3.66-.43-4.32a4.7,4.7,0,0,0-4.18-.63l-2.9.72c-1,4-1.11,6.86-.43,8.72Q225.14,75.26,225.83,71.93Z"/><path class="cls-12" d="M227.28,69.06a13.92,13.92,0,0,1-1.54,7.45q-.42.63-2.64,3.42a5.4,5.4,0,0,0,2.56.72q1.88-.72,2.81-6.29C229,70.65,228.65,68.88,227.28,69.06Z"/><path class="cls-12" d="M234.19,70.67s0,0,0,0Z"/><path class="cls-12" d="M243,73.1l.09-.63V70.4a4,4,0,0,0,0-2.33c-.68-1.8-3-2.07-7.08-.81a1.88,1.88,0,0,0-1.2-2.34l-1.71,2.88a3.27,3.27,0,0,0-.59,3c.33.53.89.51,1.66-.06,0,0,.52-.49,1.49-1.37a4.93,4.93,0,0,1,2.73-1.17c1.26-.18,1.88,0,1.88.54v5.48a34.85,34.85,0,0,0,.07,3.55c-.15.58-.84,1.14-2.12,1.66a13.32,13.32,0,0,0-2.21,1q-.18.27,2,1.08a5.5,5.5,0,0,0,3.84.18,3,3,0,0,0,1.54-1.17,6.25,6.25,0,0,0-.17-2.79A12,12,0,0,1,243,73.1Z"/><path class="cls-12" d="M238.63,77.68c.28,0,.54-.3.77-.9s.4-1,.34-1.07a2.28,2.28,0,0,0-.51-1.89,1.88,1.88,0,0,0-2.14-.63,6.61,6.61,0,0,1,.26.63,2.32,2.32,0,0,1,.26.72l-3.16-.18A11,11,0,0,1,235.81,73c.86-.72,1.17-1.2.94-1.44a1.41,1.41,0,0,0-.94-.09,7.58,7.58,0,0,1-3.67,2.61c-.79.24-.88.72-.25,1.44a2.36,2.36,0,0,0,1.79,1.07c.23,0,1.62-.29,4.18-.89C238.26,77,238.52,77.68,238.63,77.68Z"/><path class="cls-12" d="M231.21,76.87c.11.06-.83-.32-2.82-1.16-.06.77-.09,1.31-.09,1.61.12,1.68,1.31,3.09,3.59,4.23Q232.24,77.59,231.21,76.87Z"/></g></g></g></svg>